<mxfile host="Electron" agent="Mozilla/5.0 (X11; Linux x86_64) AppleWebKit/537.36 (KHTML, like Gecko) draw.io/28.0.6 Chrome/138.0.7204.185 Electron/37.2.6 Safari/537.36" version="28.0.6">
  <diagram name="Page-1" id="002J6mHw3a6Qqv0vmi37">
    <mxGraphModel dx="1181" dy="687" grid="1" gridSize="10" guides="1" tooltips="1" connect="1" arrows="1" fold="1" page="1" pageScale="1" pageWidth="827" pageHeight="1169" math="0" shadow="0">
      <root>
        <mxCell id="0" />
        <mxCell id="1" parent="0" />
        <mxCell id="mUoYNIDQqUuxxWBR4jxv-1" value="Branch" style="text;html=1;align=center;verticalAlign=middle;whiteSpace=wrap;rounded=0;" vertex="1" parent="1">
          <mxGeometry x="70" y="140" width="60" height="30" as="geometry" />
        </mxCell>
        <mxCell id="mUoYNIDQqUuxxWBR4jxv-2" value="JALR" style="text;html=1;align=center;verticalAlign=middle;whiteSpace=wrap;rounded=0;" vertex="1" parent="1">
          <mxGeometry x="384" y="140" width="60" height="30" as="geometry" />
        </mxCell>
        <mxCell id="mUoYNIDQqUuxxWBR4jxv-3" value="JAL" style="text;html=1;align=center;verticalAlign=middle;whiteSpace=wrap;rounded=0;" vertex="1" parent="1">
          <mxGeometry x="630" y="140" width="60" height="30" as="geometry" />
        </mxCell>
      </root>
    </mxGraphModel>
  </diagram>
</mxfile>
